<svg width="390" height="261" viewBox="0 0 390 261" fill="none" xmlns="http://www.w3.org/2000/svg">
<g opacity="0.5">
<path d="M79.2 219H90.08C92.9067 219 95.28 219.92 97.2 221.76C99.12 223.6 100.08 225.947 100.08 228.8C100.08 231.653 99.12 234 97.2 235.84C95.28 237.68 92.9067 238.6 90.08 238.6H86.36V247H79.2V219ZM86.36 231.8H90.08C90.88 231.8 91.5467 231.52 92.08 230.96C92.64 230.4 92.92 229.68 92.92 228.8C92.92 227.92 92.64 227.213 92.08 226.68C91.5467 226.12 90.88 225.84 90.08 225.84H86.36V231.8ZM117.912 229.36V219H125.032V247H117.912V236.24H110.032V247H102.872V219H110.032V229.36H117.912ZM153.473 243.4C150.62 246.2 147.153 247.6 143.073 247.6C138.94 247.6 135.46 246.2 132.633 243.4C129.807 240.573 128.393 237.107 128.393 233C128.393 228.893 129.807 225.44 132.633 222.64C135.46 219.813 138.94 218.4 143.073 218.4C147.18 218.4 150.647 219.813 153.473 222.64C156.327 225.44 157.753 228.893 157.753 233C157.753 237.08 156.327 240.547 153.473 243.4ZM137.673 238.48C139.14 239.893 140.94 240.6 143.073 240.6C145.207 240.6 147.007 239.893 148.473 238.48C149.913 237.04 150.633 235.213 150.633 233C150.633 230.76 149.913 228.947 148.473 227.56C147.033 226.12 145.233 225.4 143.073 225.4C140.913 225.4 139.113 226.12 137.673 227.56C136.233 228.947 135.513 230.76 135.513 233C135.513 235.213 136.233 237.04 137.673 238.48ZM157.869 219H178.869V225.92H171.949V247H164.789V225.92H157.869V219ZM204.059 243.4C201.206 246.2 197.739 247.6 193.659 247.6C189.526 247.6 186.046 246.2 183.219 243.4C180.393 240.573 178.979 237.107 178.979 233C178.979 228.893 180.393 225.44 183.219 222.64C186.046 219.813 189.526 218.4 193.659 218.4C197.766 218.4 201.233 219.813 204.059 222.64C206.913 225.44 208.339 228.893 208.339 233C208.339 237.08 206.913 240.547 204.059 243.4ZM188.259 238.48C189.726 239.893 191.526 240.6 193.659 240.6C195.793 240.6 197.593 239.893 199.059 238.48C200.499 237.04 201.219 235.213 201.219 233C201.219 230.76 200.499 228.947 199.059 227.56C197.619 226.12 195.819 225.4 193.659 225.4C191.499 225.4 189.699 226.12 188.259 227.56C186.819 228.947 186.099 230.76 186.099 233C186.099 235.213 186.819 237.04 188.259 238.48ZM225.341 230.96H239.461V233.8C239.461 237.907 238.168 241.24 235.581 243.8C232.994 246.333 229.661 247.6 225.581 247.6C221.234 247.6 217.634 246.2 214.781 243.4C211.981 240.6 210.581 237.147 210.581 233.04C210.581 228.96 211.981 225.493 214.781 222.64C217.581 219.813 221.048 218.4 225.181 218.4C227.768 218.4 230.154 218.987 232.341 220.16C234.501 221.307 236.208 222.867 237.461 224.84L231.381 228.32C230.821 227.44 229.994 226.733 228.901 226.2C227.808 225.667 226.594 225.4 225.261 225.4C223.048 225.4 221.234 226.12 219.821 227.56C218.408 229.027 217.701 230.867 217.701 233.08C217.701 235.267 218.394 237.093 219.781 238.56C221.194 240.053 223.168 240.8 225.701 240.8C228.954 240.8 231.101 239.573 232.141 237.12H225.341V230.96ZM265.074 247H257.394L252.514 237.96H249.954V247H242.794V219H253.994C256.847 219 259.234 219.92 261.154 221.76C263.1 223.547 264.074 225.853 264.074 228.68C264.074 230.333 263.647 231.867 262.794 233.28C261.94 234.693 260.78 235.813 259.314 236.64L265.074 247ZM253.914 225.6H249.954V231.88H253.914C254.794 231.907 255.514 231.627 256.074 231.04C256.634 230.453 256.914 229.693 256.914 228.76C256.914 227.827 256.634 227.067 256.074 226.48C255.514 225.893 254.794 225.6 253.914 225.6ZM292.75 247H285.03L283.83 242.96H274.51L273.31 247H265.55L274.79 219H283.51L292.75 247ZM279.15 227.28L276.35 236.8H281.99L279.15 227.28ZM294.786 219H305.666C308.493 219 310.866 219.92 312.786 221.76C314.706 223.6 315.666 225.947 315.666 228.8C315.666 231.653 314.706 234 312.786 235.84C310.866 237.68 308.493 238.6 305.666 238.6H301.946V247H294.786V219ZM301.946 231.8H305.666C306.466 231.8 307.133 231.52 307.666 230.96C308.226 230.4 308.506 229.68 308.506 228.8C308.506 227.92 308.226 227.213 307.666 226.68C307.133 226.12 306.466 225.84 305.666 225.84H301.946V231.8ZM333.498 229.36V219H340.618V247H333.498V236.24H325.618V247H318.458V219H325.618V229.36H333.498ZM352.219 236.16V240.28H363.059V247H345.059V219H362.859V225.68H352.219V229.56H361.859V236.16H352.219ZM388.746 247H381.066L376.186 237.96H373.626V247H366.466V219H377.666C380.519 219 382.906 219.92 384.826 221.76C386.772 223.547 387.746 225.853 387.746 228.68C387.746 230.333 387.319 231.867 386.466 233.28C385.612 234.693 384.452 235.813 382.986 236.64L388.746 247ZM377.586 225.6H373.626V231.88H377.586C378.466 231.907 379.186 231.627 379.746 231.04C380.306 230.453 380.586 229.693 380.586 228.76C380.586 227.827 380.306 227.067 379.746 226.48C379.186 225.893 378.466 225.6 377.586 225.6Z" fill="url(#paint0_linear_117_13)"/>
<path d="M7.85 24.95H25.5V28.5C25.5 33.6333 23.8833 37.8 20.65 41C17.4167 44.1667 13.25 45.75 8.15 45.75C2.71667 45.75 -1.78333 44 -5.35 40.5C-8.85 37 -10.6 32.6833 -10.6 27.55C-10.6 22.45 -8.85 18.1167 -5.35 14.55C-1.85 11.0167 2.48333 9.25 7.65 9.25C10.8833 9.25 13.8667 9.98333 16.6 11.45C19.3 12.8833 21.4333 14.8333 23 17.3L15.4 21.65C14.7 20.55 13.6667 19.6667 12.3 19C10.9333 18.3333 9.41667 18 7.75 18C4.98333 18 2.71667 18.9 0.95 20.7C-0.816666 22.5333 -1.7 24.8333 -1.7 27.6C-1.7 30.3333 -0.833333 32.6167 0.900001 34.45C2.66667 36.3167 5.13333 37.25 8.3 37.25C12.3667 37.25 15.05 35.7167 16.35 32.65H7.85V24.95ZM57.516 45H47.916L41.816 33.7H38.616V45H29.666V10H43.666C47.2327 10 50.216 11.15 52.616 13.45C55.0493 15.6833 56.266 18.5667 56.266 22.1C56.266 24.1667 55.7327 26.0833 54.666 27.85C53.5993 29.6167 52.1493 31.0167 50.316 32.05L57.516 45ZM43.566 18.25H38.616V26.1H43.566C44.666 26.1333 45.566 25.7833 46.266 25.05C46.966 24.3167 47.316 23.3667 47.316 22.2C47.316 21.0333 46.966 20.0833 46.266 19.35C45.566 18.6167 44.666 18.25 43.566 18.25ZM92.1113 45H82.4613L80.9613 39.95H69.3113L67.8113 45H58.1113L69.6613 10H80.5613L92.1113 45ZM75.1113 20.35L71.6113 32.25H78.6613L75.1113 20.35ZM94.6563 10H108.256C111.79 10 114.756 11.15 117.156 13.45C119.556 15.75 120.756 18.6833 120.756 22.25C120.756 25.8167 119.556 28.75 117.156 31.05C114.756 33.35 111.79 34.5 108.256 34.5H103.606V45H94.6563V10ZM103.606 26H108.256C109.256 26 110.09 25.65 110.756 24.95C111.456 24.25 111.806 23.35 111.806 22.25C111.806 21.15 111.456 20.2667 110.756 19.6C110.09 18.9 109.256 18.55 108.256 18.55H103.606V26ZM143.046 22.95V10H151.946V45H143.046V31.55H133.196V45H124.246V10H133.196V22.95H143.046ZM157.498 45V10H166.448V45H157.498ZM188.851 45.75C183.585 45.75 179.218 44.0167 175.751 40.55C172.318 37.0833 170.601 32.7333 170.601 27.5C170.601 22.2667 172.318 17.9333 175.751 14.5C179.185 11 183.551 9.25 188.851 9.25C192.018 9.25 194.951 10 197.651 11.5C200.351 13 202.468 15.0167 204.001 17.55L196.251 22C195.585 20.7667 194.585 19.8 193.251 19.1C191.951 18.3667 190.485 18 188.851 18C186.085 18 183.818 18.8833 182.051 20.65C180.351 22.4167 179.501 24.7 179.501 27.5C179.501 30.3667 180.351 32.6667 182.051 34.4C183.785 36.1333 186.051 37 188.851 37C190.485 37 191.951 36.65 193.251 35.95C194.585 35.2167 195.585 34.2167 196.251 32.95L204.001 37.45C202.468 40.0167 200.351 42.05 197.651 43.55C194.985 45.0167 192.051 45.75 188.851 45.75ZM-9.25 73H5C9.8 73 13.8333 74.6833 17.1 78.05C20.3667 81.4167 22 85.5667 22 90.5C22 95.4667 20.3667 99.6333 17.1 103C13.8667 106.333 9.83333 108 5 108H-9.25V73ZM-0.0499996 99.35H5C7.4 99.35 9.38333 98.55 10.95 96.95C12.4833 95.3167 13.25 93.1667 13.25 90.5C13.25 87.8 12.4833 85.6667 10.95 84.1C9.41667 82.4667 7.43333 81.65 5 81.65H-0.0499996V99.35ZM35.1004 94.45V99.6H48.6504V108H26.1504V73H48.4004V81.35H35.1004V86.2H47.1504V94.45H35.1004ZM65.3582 108.75C61.7249 108.75 58.6749 107.983 56.2082 106.45C53.7749 104.917 52.0582 102.783 51.0582 100.05L58.7082 95.6C60.0082 98.7 62.3082 100.25 65.6082 100.25C68.3415 100.25 69.7082 99.4667 69.7082 97.9C69.7082 96.9 68.9249 96.0667 67.3582 95.4C66.8249 95.2 65.3582 94.75 62.9582 94.05C59.5582 93.0833 56.9749 91.7333 55.2082 90C53.4415 88.2667 52.5582 85.9667 52.5582 83.1C52.5582 79.8667 53.7082 77.25 56.0082 75.25C58.3749 73.25 61.2749 72.25 64.7082 72.25C67.6415 72.25 70.2415 72.95 72.5082 74.35C74.7749 75.7167 76.5082 77.6833 77.7082 80.25L70.2082 84.65C69.1082 82.05 67.2915 80.75 64.7582 80.75C63.7249 80.75 62.9249 80.9667 62.3582 81.4C61.7915 81.8 61.5082 82.35 61.5082 83.05C61.5082 83.8167 61.9082 84.4667 62.7082 85C63.5415 85.5333 65.1415 86.15 67.5082 86.85C69.2749 87.3833 70.6415 87.85 71.6082 88.25C72.7082 88.7167 73.8415 89.35 75.0082 90.15C77.4415 91.75 78.6582 94.3 78.6582 97.8C78.6582 101.233 77.4415 103.917 75.0082 105.85C72.5749 107.783 69.3582 108.75 65.3582 108.75ZM81.9121 108V73H90.8621V108H81.9121ZM113.465 87.95H131.115V91.5C131.115 96.6333 129.499 100.8 126.265 104C123.032 107.167 118.865 108.75 113.765 108.75C108.332 108.75 103.832 107 100.265 103.5C96.7652 100 95.0152 95.6833 95.0152 90.55C95.0152 85.45 96.7652 81.1167 100.265 77.55C103.765 74.0167 108.099 72.25 113.265 72.25C116.499 72.25 119.482 72.9833 122.215 74.45C124.915 75.8833 127.049 77.8333 128.615 80.3L121.015 84.65C120.315 83.55 119.282 82.6667 117.915 82C116.549 81.3333 115.032 81 113.365 81C110.599 81 108.332 81.9 106.565 83.7C104.799 85.5333 103.915 87.8333 103.915 90.6C103.915 93.3333 104.782 95.6167 106.515 97.45C108.282 99.3167 110.749 100.25 113.915 100.25C117.982 100.25 120.665 98.7167 121.965 95.65H113.465V87.95ZM154.581 90.6V73H163.481V108H156.581L144.231 90.4V108H135.281V73H142.231L154.581 90.6ZM177.971 94.45V99.6H191.521V108H169.021V73H191.271V81.35H177.971V86.2H190.021V94.45H177.971ZM223.629 108H214.029L207.929 96.7H204.729V108H195.779V73H209.779C213.346 73 216.329 74.15 218.729 76.45C221.163 78.6833 222.379 81.5667 222.379 85.1C222.379 87.1667 221.846 89.0833 220.779 90.85C219.713 92.6167 218.263 94.0167 216.429 95.05L223.629 108ZM209.679 81.25H204.729V89.1H209.679C210.779 89.1333 211.679 88.7833 212.379 88.05C213.079 87.3167 213.429 86.3667 213.429 85.2C213.429 84.0333 213.079 83.0833 212.379 82.35C211.679 81.6167 210.779 81.25 209.679 81.25Z" fill="url(#paint1_linear_117_13)"/>
<g filter="url(#filter0_d_117_13)">
<path d="M125.4 98H148.2C155.88 98 162.333 100.693 167.56 106.08C172.787 111.467 175.4 118.107 175.4 126C175.4 133.947 172.787 140.613 167.56 146C162.387 151.333 155.933 154 148.2 154H125.4V98ZM140.12 140.16H148.2C152.04 140.16 155.213 138.88 157.72 136.32C160.173 133.707 161.4 130.267 161.4 126C161.4 121.68 160.173 118.267 157.72 115.76C155.267 113.147 152.093 111.84 148.2 111.84H140.12V140.16ZM196.361 132.32V140.56H218.041V154H182.041V98H217.641V111.36H196.361V119.12H215.641V132.32H196.361ZM255.573 154H238.533L220.453 98H236.133L247.013 136.56L257.973 98H273.653L255.573 154ZM292.376 132.32V140.56H314.056V154H278.056V98H313.656V111.36H292.376V119.12H311.656V132.32H292.376ZM335.189 98V140.16H354.469V154H320.869V98H335.189ZM404.884 146.8C399.178 152.4 392.244 155.2 384.084 155.2C375.818 155.2 368.858 152.4 363.204 146.8C357.551 141.147 354.724 134.213 354.724 126C354.724 117.787 357.551 110.88 363.204 105.28C368.858 99.6267 375.818 96.8 384.084 96.8C392.298 96.8 399.231 99.6267 404.884 105.28C410.591 110.88 413.444 117.787 413.444 126C413.444 134.16 410.591 141.093 404.884 146.8ZM373.284 136.96C376.218 139.787 379.818 141.2 384.084 141.2C388.351 141.2 391.951 139.787 394.884 136.96C397.764 134.08 399.204 130.427 399.204 126C399.204 121.52 397.764 117.893 394.884 115.12C392.004 112.24 388.404 110.8 384.084 110.8C379.764 110.8 376.164 112.24 373.284 115.12C370.404 117.893 368.964 121.52 368.964 126C368.964 130.427 370.404 134.08 373.284 136.96ZM420.088 98H441.848C447.501 98 452.248 99.84 456.087 103.52C459.928 107.2 461.848 111.893 461.848 117.6C461.848 123.307 459.928 128 456.087 131.68C452.248 135.36 447.501 137.2 441.848 137.2H434.408V154H420.088V98ZM434.408 123.6H441.848C443.448 123.6 444.781 123.04 445.848 121.92C446.968 120.8 447.528 119.36 447.528 117.6C447.528 115.84 446.968 114.427 445.848 113.36C444.781 112.24 443.448 111.68 441.848 111.68H434.408V123.6ZM481.751 132.32V140.56H503.431V154H467.431V98H503.031V111.36H481.751V119.12H501.031V132.32H481.751ZM554.804 154H539.444L529.684 135.92H524.564V154H510.244V98H532.644C538.35 98 543.124 99.84 546.964 103.52C550.857 107.093 552.804 111.707 552.804 117.36C552.804 120.667 551.95 123.733 550.244 126.56C548.537 129.387 546.217 131.627 543.284 133.28L554.804 154ZM532.484 111.2H524.564V123.76H532.484C534.244 123.813 535.684 123.253 536.804 122.08C537.924 120.907 538.484 119.387 538.484 117.52C538.484 115.653 537.924 114.133 536.804 112.96C535.684 111.787 534.244 111.2 532.484 111.2Z" fill="url(#paint2_linear_117_13)"/>
</g>
<g filter="url(#filter1_d_117_13)">
<path d="M-228.6 170H-205.8C-198.12 170 -191.667 172.693 -186.44 178.08C-181.213 183.467 -178.6 190.107 -178.6 198C-178.6 205.947 -181.213 212.613 -186.44 218C-191.613 223.333 -198.067 226 -205.8 226H-228.6V170ZM-213.88 212.16H-205.8C-201.96 212.16 -198.787 210.88 -196.28 208.32C-193.827 205.707 -192.6 202.267 -192.6 198C-192.6 193.68 -193.827 190.267 -196.28 187.76C-198.733 185.147 -201.907 183.84 -205.8 183.84H-213.88V212.16ZM-157.639 204.32V212.56H-135.959V226H-171.959V170H-136.359V183.36H-157.639V191.12H-138.359V204.32H-157.639ZM-98.4269 226H-115.467L-133.547 170H-117.867L-106.987 208.56L-96.0269 170H-80.3469L-98.4269 226ZM-61.6237 204.32V212.56H-39.9438V226H-75.9437V170H-40.3438V183.36H-61.6237V191.12H-42.3437V204.32H-61.6237ZM-18.8112 170V212.16H0.468752V226H-33.1312V170H-18.8112ZM50.8844 218.8C45.1777 224.4 38.2444 227.2 30.0844 227.2C21.8177 227.2 14.8577 224.4 9.20438 218.8C3.55104 213.147 0.724375 206.213 0.724375 198C0.724375 189.787 3.55104 182.88 9.20438 177.28C14.8577 171.627 21.8177 168.8 30.0844 168.8C38.2977 168.8 45.231 171.627 50.8844 177.28C56.591 182.88 59.4444 189.787 59.4444 198C59.4444 206.16 56.591 213.093 50.8844 218.8ZM19.2844 208.96C22.2177 211.787 25.8177 213.2 30.0844 213.2C34.351 213.2 37.951 211.787 40.8844 208.96C43.7644 206.08 45.2044 202.427 45.2044 198C45.2044 193.52 43.7644 189.893 40.8844 187.12C38.0044 184.24 34.4044 182.8 30.0844 182.8C25.7644 182.8 22.1644 184.24 19.2844 187.12C16.4044 189.893 14.9644 193.52 14.9644 198C14.9644 202.427 16.4044 206.08 19.2844 208.96ZM66.0875 170H87.8475C93.5008 170 98.2475 171.84 102.087 175.52C105.928 179.2 107.848 183.893 107.848 189.6C107.848 195.307 105.928 200 102.087 203.68C98.2475 207.36 93.5008 209.2 87.8475 209.2H80.4075V226H66.0875V170ZM80.4075 195.6H87.8475C89.4475 195.6 90.7808 195.04 91.8475 193.92C92.9675 192.8 93.5275 191.36 93.5275 189.6C93.5275 187.84 92.9675 186.427 91.8475 185.36C90.7808 184.24 89.4475 183.68 87.8475 183.68H80.4075V195.6ZM127.751 204.32V212.56H149.431V226H113.431V170H149.031V183.36H127.751V191.12H147.031V204.32H127.751ZM200.804 226H185.444L175.684 207.92H170.564V226H156.244V170H178.644C184.35 170 189.124 171.84 192.964 175.52C196.857 179.093 198.804 183.707 198.804 189.36C198.804 192.667 197.95 195.733 196.244 198.56C194.537 201.387 192.217 203.627 189.284 205.28L200.804 226ZM178.484 183.2H170.564V195.76H178.484C180.244 195.813 181.684 195.253 182.804 194.08C183.924 192.907 184.484 191.387 184.484 189.52C184.484 187.653 183.924 186.133 182.804 184.96C181.684 183.787 180.244 183.2 178.484 183.2Z" fill="url(#paint3_linear_117_13)"/>
</g>
</g>
<defs>
<filter id="filter0_d_117_13" x="105.4" y="76.8" width="469.404" height="98.4" filterUnits="userSpaceOnUse" color-interpolation-filters="sRGB">
<feFlood flood-opacity="0" result="BackgroundImageFix"/>
<feColorMatrix in="SourceAlpha" type="matrix" values="0 0 0 0 0 0 0 0 0 0 0 0 0 0 0 0 0 0 127 0" result="hardAlpha"/>
<feOffset/>
<feGaussianBlur stdDeviation="10"/>
<feComposite in2="hardAlpha" operator="out"/>
<feColorMatrix type="matrix" values="0 0 0 0 0 0 0 0 0 0 0 0 0 0 0 0 0 0 0.75 0"/>
<feBlend mode="normal" in2="BackgroundImageFix" result="effect1_dropShadow_117_13"/>
<feBlend mode="normal" in="SourceGraphic" in2="effect1_dropShadow_117_13" result="shape"/>
</filter>
<filter id="filter1_d_117_13" x="-248.6" y="148.8" width="469.404" height="98.4" filterUnits="userSpaceOnUse" color-interpolation-filters="sRGB">
<feFlood flood-opacity="0" result="BackgroundImageFix"/>
<feColorMatrix in="SourceAlpha" type="matrix" values="0 0 0 0 0 0 0 0 0 0 0 0 0 0 0 0 0 0 127 0" result="hardAlpha"/>
<feOffset/>
<feGaussianBlur stdDeviation="10"/>
<feComposite in2="hardAlpha" operator="out"/>
<feColorMatrix type="matrix" values="0 0 0 0 0 0 0 0 0 0 0 0 0 0 0 0 0 0 0.75 0"/>
<feBlend mode="normal" in2="BackgroundImageFix" result="effect1_dropShadow_117_13"/>
<feBlend mode="normal" in="SourceGraphic" in2="effect1_dropShadow_117_13" result="shape"/>
</filter>
<linearGradient id="paint0_linear_117_13" x1="93.276" y1="236" x2="376.228" y2="236" gradientUnits="userSpaceOnUse">
<stop stop-color="#FF004D"/>
<stop offset="1" stop-color="#4A00A9"/>
</linearGradient>
<linearGradient id="paint1_linear_117_13" x1="16.6895" y1="13.86" x2="246.966" y2="115.455" gradientUnits="userSpaceOnUse">
<stop stop-color="#908DFF"/>
<stop offset="1" stop-color="#0500FF"/>
</linearGradient>
<linearGradient id="paint2_linear_117_13" x1="176" y1="82" x2="556.246" y2="151.352" gradientUnits="userSpaceOnUse">
<stop stop-color="#71F6FF"/>
<stop offset="1" stop-color="#00D355"/>
</linearGradient>
<linearGradient id="paint3_linear_117_13" x1="-178" y1="154" x2="202.246" y2="223.352" gradientUnits="userSpaceOnUse">
<stop stop-color="#71F6FF"/>
<stop offset="1" stop-color="#00D355"/>
</linearGradient>
</defs>
</svg>
